<svg width="42" height="42" viewBox="0 0 42 42" fill="none" xmlns="http://www.w3.org/2000/svg">
<path fill-rule="evenodd" clip-rule="evenodd" d="M21 42C9.40202 42 0 32.598 0 21C0 9.40202 9.40202 0 21 0C32.598 0 42 9.40202 42 21C42 32.598 32.598 42 21 42ZM21 4.2C11.7216 4.2 4.2 11.7216 4.2 21C4.2 30.2784 11.7216 37.8 21 37.8C30.2784 37.8 37.8 30.2784 37.8 21C37.8 11.7216 30.2784 4.2 21 4.2ZM21.0009 9.99045C22.1607 9.99045 23.101 10.9307 23.101 12.0905V18.9H29.9095C31.0693 18.9 32.0095 19.8402 32.0095 21C32.0095 22.1598 31.0693 23.1 29.9095 23.1H23.101V29.9095C23.101 31.0693 22.1607 32.0095 21.0009 32.0095C19.8412 32.0095 18.9009 31.0693 18.9009 29.9095V23.1H12.0905C10.9307 23.1 9.99045 22.1598 9.99045 21C9.99045 19.8402 10.9307 18.9 12.0905 18.9H18.9009V12.0905C18.9009 10.9307 19.8412 9.99045 21.0009 9.99045Z" fill="#FFAB00"/>
</svg>
