<svg fill="none" height="16" viewBox="0 0 16 16" width="16" xmlns="http://www.w3.org/2000/svg" xmlns:xlink="http://www.w3.org/1999/xlink"><clipPath id="a"><path d="m0 0h16v16h-16z"/></clipPath><g clip-path="url(#a)"><path d="m10.3333 9.33333h-.52663l-.18667-.18c.6533-.76 1.0467-1.74666 1.0467-2.82 0-2.39333-1.94003-4.33333-4.33337-4.33333-2.39333 0-4.33333 1.94-4.33333 4.33333 0 2.39334 1.94 4.33337 4.33333 4.33337 1.07334 0 2.06-.3934 2.82-1.0467l.18.18667v.52663l3.33337 3.3267.9933-.9933zm-3.99997 0c-1.66 0-3-1.34-3-3s1.34-3 3-3 3 1.34 3 3-1.34 3-3 3z" fill="#1b2559"/></g></svg>