<svg width="240" height="144" viewBox="0 0 240 144" fill="none" xmlns="http://www.w3.org/2000/svg">
<rect width="240" height="144" fill="#F8F9FE"/>
<path d="M97.2934 67.432V76H98.4334V67.432H97.2934ZM102.775 67.432V76H103.855V68.872H103.879L106.555 76H107.527L110.203 68.872H110.227V76H111.307V67.432H109.747L107.035 74.632L104.335 67.432H102.775ZM117.08 72.46L118.532 68.464H118.556L119.984 72.46H117.08ZM117.932 67.432L114.596 76H115.76L116.72 73.42H120.344L121.28 76H122.54L119.192 67.432H117.932ZM132.193 74.932L132.493 76H133.213V71.488H129.457V72.448H132.193C132.209 72.84 132.157 73.208 132.037 73.552C131.917 73.888 131.737 74.184 131.497 74.44C131.265 74.688 130.977 74.884 130.633 75.028C130.289 75.172 129.893 75.244 129.445 75.244C128.965 75.244 128.541 75.152 128.173 74.968C127.813 74.776 127.509 74.524 127.261 74.212C127.013 73.892 126.825 73.528 126.697 73.12C126.569 72.704 126.505 72.272 126.505 71.824C126.505 71.368 126.561 70.924 126.673 70.492C126.785 70.052 126.957 69.664 127.189 69.328C127.429 68.984 127.733 68.708 128.101 68.5C128.477 68.292 128.925 68.188 129.445 68.188C129.765 68.188 130.065 68.228 130.345 68.308C130.633 68.38 130.889 68.492 131.113 68.644C131.337 68.796 131.525 68.992 131.677 69.232C131.829 69.464 131.933 69.744 131.989 70.072H133.129C133.049 69.568 132.897 69.14 132.673 68.788C132.457 68.428 132.185 68.132 131.857 67.9C131.537 67.668 131.169 67.5 130.753 67.396C130.345 67.284 129.909 67.228 129.445 67.228C128.765 67.228 128.169 67.356 127.657 67.612C127.153 67.86 126.729 68.196 126.385 68.62C126.049 69.044 125.793 69.54 125.617 70.108C125.449 70.668 125.365 71.26 125.365 71.884C125.365 72.444 125.457 72.984 125.641 73.504C125.825 74.024 126.093 74.484 126.445 74.884C126.797 75.284 127.225 75.604 127.729 75.844C128.233 76.076 128.805 76.192 129.445 76.192C129.949 76.192 130.449 76.096 130.945 75.904C131.441 75.704 131.857 75.38 132.193 74.932ZM137.291 67.432V76H143.243V75.04H138.431V72.076H142.883V71.116H138.431V68.392H143.207V67.432H137.291Z" fill="#2F2F2F"/>
</svg>
